<?xml version="1.0" encoding="utf-8"?>
<!-- Generator: Adobe Illustrator 24.1.3, SVG Export Plug-In . SVG Version: 6.00 Build 0)  -->
<svg version="1.1" id="Layer_1" xmlns="http://www.w3.org/2000/svg" xmlns:xlink="http://www.w3.org/1999/xlink" x="0px" y="0px"
	 viewBox="0 0 526.19 151.71" style="enable-background:new 0 0 526.19 151.71;" xml:space="preserve">
<style type="text/css">
	.st0{fill:#D02C2F;}
</style>
<g>
	<path class="st0" d="M74.04,75.97c0-7.99,2.67-17.39,6.61-25.5c31.06-2.44,46.25-17.62,46.25-30.03c0-9.04-8.11-16.69-24.11-16.69
		c-21.56,0-37.32,17.85-44.4,39.3c-19.13-4.52-33.5-16.7-34.2-36.17C9.81,13.83,3.67,20.68,3.67,26.82
		c0,11.82,22.49,20.98,52.75,23.41c-1.39,6.15-2.2,12.63-2.2,18.78c0,24.23,11.59,45.78,38.25,45.78
		c19.71,0,32.34-19.25,32.34-31.41c0-7.77-4.75-12.4-13.56-12.4c-1.85,11.59-13.68,22.84-22.14,22.84
		C78.21,93.82,74.04,86.05,74.04,75.97 M100.35,31.69c2.66,0,4.52,1.62,4.52,3.59c0,3.48-5.45,8.35-20.98,9.5
		C88.64,37.14,94.67,31.69,100.35,31.69"/>
	<path class="st0" d="M116.45,57.56c1.88-0.36,3.53-0.59,5.05-0.59c8.34,0,10.57,6.11,10.57,14.56c0,9.28-2.71,21.61-2.71,31.72
		c0,9.29,3.29,12.34,11.51,12.34c3.05,0,6.81-0.35,11.28-1.06c-3.05-4.81-5.28-9.87-5.28-16.68c0-14.93,3.4-43.59,28.79-45.12
		c0,0,0.82-2.46,0.82-5.4c0-4.11-1.64-8.93-9.16-8.93c-10.22,0-16.57,14.33-19.98,31.01c0.12-2.58,0.24-5.28,0.24-7.87
		c0-12.33-7.52-17.38-15.16-17.38C124.8,44.17,116.92,49.22,116.45,57.56"/>
	<path class="st0" d="M197.31,88.36c17.58,0,23.86-14.45,23.86-26.18c0-8.04-3-14.86-7.23-14.86c-1.23,0-2.72,0.54-4.09,1.36
		c-3.82-2.31-7.77-3.27-11.73-3.27c-16.36,0-32.45,17.72-32.45,37.21c0,24.13,15.27,32.18,29.45,32.18
		c12.4,0,23.99-6.13,23.99-12.95c0-4.09-3.27-7.63-10.08-8.31c-2.32,6.54-7.23,10.22-12,10.22c-5.72,0-11.17-5.31-11.31-17.17
		C189.95,87.81,193.9,88.36,197.31,88.36 M203.03,68.86c0,5.86-3.68,12.4-17.04,13.36c1.36-9.27,7.63-18.27,15.54-19.77
		C202.35,64.09,203.03,66.41,203.03,68.86"/>
	<path class="st0" d="M250.02,45.15c-18.39,0-29.33,25.69-29.33,45.98c0,13.25,4.73,24.07,14.87,24.07
		c6.09,0,12.98-2.84,21.23-19.74h0.54c1.08,15.55,2.98,29.07,14.2,29.07c7.57,0,17.17-7.84,17.17-7.84
		c-13.39-5.41-15.28-13.93-15.28-32.58c0-6.76,0.27-14.74,0.27-24.47c0-3.25-2.44-4.19-5.68-4.19c-2.03,0-4.33,0.4-6.49,0.95
		C260.16,51.77,257.05,45.15,250.02,45.15 M254.88,75.03c0,15.55-8.25,24.47-11.76,24.47c-1.35,0-2.03-2.3-2.03-5.68
		c0-8.79,4.19-25.55,11.62-32.18c0.54,1.49,0.95,3.11,1.36,4.73C254.62,69.49,254.88,72.33,254.88,75.03"/>
	<path class="st0" d="M316.07,49.1c0,5.47-4.47,12.91-4.47,12.91c17.05,0,26.5-9.93,26.5-18.71c0-9.77-10.44-14.73-22.03-14.73
		c-14.74,0-31.46,7.95-31.46,23.18c0,17.88,22.68,26.33,22.68,32.96c0,3.81-3.31,5.47-7.45,5.47c-4.64,0-10.1-1.99-13.58-5.47
		c-3.31,4.8-4.97,9.93-4.97,14.41c0,9.1,6.79,16.23,20.86,16.23c20.21,0,34.61-10.76,34.61-23.69c0-7.61-4.97-15.89-16.72-23.02
		c-8.44-5.13-18.55-7.12-18.55-16.89c0-4.3,5.3-7.62,9.44-7.62C313.75,44.13,316.07,45.62,316.07,49.1"/>
	<path class="st0" d="M367.43,54.79c7.34,0,12.19,15.71,12.19,29.22c0,10.13-2.8,19.09-9.4,19.09c-7.78,0-10.87-11.75-10.87-23.64
		C359.35,67.27,362.59,54.79,367.43,54.79 M372.13,42.16c-21.59,0-33.77,20.7-33.77,40.23c0,17.18,9.54,33.48,30.55,33.48
		c20.11,0,30.25-19.53,30.25-38.47C399.15,59.49,390.19,42.16,372.13,42.16"/>
	<path class="st0" d="M435.8,98c3.5,11.16,10.22,15.6,16.28,15.6c7.67,0,7.93-6.59,7.93-6.59c-5.51,0-7.4-10.35-7.4-21.92
		c0-13.86,2.69-29.6,4.71-32.02c-1.74-2.42-7.12-3.63-12.1-3.63c-4.58,0-8.74,1.07-9.02,3.09c0,0-2.68,13.32-2.68,27.31
		c0,3.5,0.13,6.72,0.53,9.55c-1.75,3.36-3.63,4.84-5.24,4.84c-4.44,0-5.79-7.26-5.79-15.87c0-11.44,2.29-25.3,2.29-27.85
		c0-12.24-9.55-18.16-18.84-18.16c-8.21,0-16.27,4.71-16.81,13.59c1.21-0.27,2.42-0.27,3.49-0.27c9.29,0,11.57,7.54,11.57,17.63
		c0,9.55-2.01,21.52-2.01,31.48c0,11.7,2.82,20.85,14.8,20.85C424.23,115.62,431.5,108.36,435.8,98"/>
	<path class="st0" d="M494.1,111.01c17.96,0,28.42-24.68,28.42-45.32c0-14.8-5.38-27.67-17.35-27.67c-5.98,0-12.71,1.65-20.5,14.66
		c0-11.37-1.49-15.71-7.62-15.71c-3.89,0-9.57,1.8-17.95,4.49c3.89,4.64,4.79,11.96,4.79,20.49c0,7.33-0.6,15.7-0.6,24.23
		c0,17.35-1.79,31.41-2.99,41.13c-2.84,1.05-6.29,6.43-6.29,11.52c0,4.78,3,9.12,12.57,9.12c12.72-1.05,16.4-12.05,16.29-20.47
		c-0.21-2.84-0.28-11.4-0.28-14.54c0-2.24,0-4.49,0.15-6.73C485.43,108.77,489.31,111.01,494.1,111.01 M483.18,93.66
		c0.15-27.38,8.98-38.3,13.61-38.3c1.79,0,2.84,3.74,2.84,8.98c0,12.12-5.08,31.86-16.6,33.51L483.18,93.66z"/>
</g>
</svg>
