<svg id="Layer_1" data-name="Layer 1" xmlns="http://www.w3.org/2000/svg" viewBox="0 0 1496 486"><title>tr</title><circle cx="253.73" cy="249" r="208.82" style="fill:transparent"/><path d="M510.88,186.59H659q32,0,46.28,12.56T719.6,240v92.67H680.78V245.12c0-10.64-1.59-17.71-4.85-21.16s-9.9-5.23-20-5.23H634.23V332.67H594.87V218.73H549.68V332.67h-38.8Z" style="fill:#231f20;fill-rule:evenodd"/><path d="M785.05,259.7c0,13.76,3.29,24.61,9.72,32.42s15.64,11.67,27.26,11.67,20.57-3.86,27.15-11.67,9.91-18.66,9.91-32.42-3.26-24.6-9.82-32.38S833.63,215.67,822,215.67s-20.58,3.87-27.14,11.65S785.05,245.89,785.05,259.7Zm114.51,0q0,34.41-20.92,54.91c-14,13.64-32.71,20.47-56.39,20.47s-42.41-6.83-56.55-20.56-21.11-32-21.11-54.82,7.07-41.12,21.11-54.93,33-20.71,56.55-20.71c23.4,0,42.07,6.86,56.2,20.62S899.56,236.8,899.56,259.73Z" style="fill:#231f20;fill-rule:evenodd"/><path d="M961.94,133.64v53H995c14.57,0,26.32,1.72,35.17,5.2A53.8,53.8,0,0,1,1053,209.05a69.89,69.89,0,0,1,11.83,22.16,83.74,83.74,0,0,1,4,26.56q0,35.09-18.75,55t-52.42,19.9H923.36v-199Zm23.54,84.53H961.94v83.19h26.54c14.61,0,25-3.12,30.93-9.3s9-16.64,9-31.4c0-15.16-3.21-26-9.88-32.6S1000.89,218.17,985.48,218.17Z" style="fill:#231f20;fill-rule:evenodd"/><rect x="1092.52" y="186.59" width="40.46" height="146.09" style="fill:#231f20"/><rect x="1165.98" y="133.64" width="40.47" height="199.03" style="fill:#231f20"/><rect x="1239.58" y="186.59" width="40.46" height="146.09" style="fill:#231f20"/><path d="M1237.58,146.14A21.85,21.85,0,1,1,1259.41,168,21.85,21.85,0,0,1,1237.58,146.14Z" style="fill:#231f20;fill-rule:evenodd"/><path d="M1090.9,146.14A21.85,21.85,0,1,1,1112.73,168,21.86,21.86,0,0,1,1090.9,146.14Z" style="fill:#231f20;fill-rule:evenodd"/><polygon points="1313.04 301.39 1399.54 218.17 1313.04 218.17 1313.04 186.59 1450.05 186.59 1450.05 218.11 1363.56 301.36 1450.05 301.36 1450.05 332.67 1313.04 332.67 1313.04 301.39" style="fill:#231f20;fill-rule:evenodd"/><path d="M301.93,45.78a166.5,166.5,0,0,1-3.78,319.35,4.93,4.93,0,0,1-2.75-9.46A138.83,138.83,0,0,0,243.07,85c-69,4.77-124.62,61-128.72,130a138.88,138.88,0,0,0,94.76,140.23,4.91,4.91,0,0,1,3.4,4.65V360a4.92,4.92,0,0,1-6.23,4.77A166.51,166.51,0,0,1,87.09,190.23C92.77,124,138.1,68.5,198.8,47.49,110.12,71.61,44.91,152.68,44.91,249c0,105.39,78.07,192.53,179.53,206.77V286.61a49,49,0,0,0,57.55,0v169.3C384,442.11,462.55,354.74,462.55,249,462.55,150.27,394,67.55,301.93,45.78ZM210.18,314.47a4.78,4.78,0,0,1,2.33,4.08v.16a4.84,4.84,0,0,1-7.06,4.3,103.7,103.7,0,0,1-55.39-103.74c5.21-47.71,43.59-86.18,91.3-91.47a103.8,103.8,0,0,1,57.55,196.32,4.82,4.82,0,0,1-4.52-8.51,82.5,82.5,0,0,0-50.58-153.46c-38.93,4.3-69.91,36.53-72.86,75.59A82.38,82.38,0,0,0,210.18,314.47Zm43-33.79A28.78,28.78,0,1,1,282,251.9,28.78,28.78,0,0,1,253.22,280.68Z" style="fill:#3dae2b"/></svg>