<?xml version="1.0" encoding="UTF-8"?>
<svg id="LOGO_xA0_Image" xmlns="http://www.w3.org/2000/svg" version="1.1" viewBox="0 0 1200 1200">
  <!-- Generator: Adobe Illustrator 29.1.0, SVG Export Plug-In . SVG Version: 2.1.0 Build 142)  -->
  <defs>
    <style>
      .st0 {
        fill: #ee5725;
      }

      .st1 {
        fill: #55a3d9;
        fill-rule: evenodd;
      }
    </style>
  </defs>
  <g>
    <path class="st0" d="M1129.65,558.52c4.65,0,8.43-3.77,8.43-8.42v-14.25c0-4.83-3.92-8.74-8.75-8.74h-32.74v-29.65c0-8.74-5.51-14.25-13.94-14.25h-11.02c-8.43,0-13.94,5.51-13.94,14.25v29.65h-65.47v-19.29c0-7.77,2.92-11.01,10.37-11.01h14.91c7.13,0,11.67-3.89,11.67-10.36v-9.39c0-7.77-4.54-11.65-13.94-11.65h-16.21c-32.41,0-44.73,13.27-44.73,42.09v19.62h-29.82v22.66c0,4.83,3.92,8.74,8.75,8.74h21.07v122.2c0,6.26,5.08,11.33,11.35,11.33h16.2c6.27,0,11.35-5.07,11.35-11.33v-122.85h64.5v87.24c0,34.64,13.61,46.95,51.86,46.95h19.12c5.83,0,9.4-3.56,9.4-9.71v-13.6c0-5.5-3.57-8.74-8.75-8.74h-17.83c-11.02,0-14.91-3.89-14.91-15.22v-86.26h33.06Z"/>
    <path class="st0" d="M892.09,648.99v-70.26c0-35.29-23.01-53.1-67.74-53.1-41.16,0-64.5,16.84-64.5,46.3v1.62c0,3.93,3.19,7.12,7.13,7.12h23.34c3.76,0,6.81-3.04,6.81-6.8v-1.62c0-11.65,8.43-16.51,27.55-16.51s28.85,6.48,28.85,20.4v23.64c-11.35-2.59-23.01-3.89-34.36-3.89-44.73,0-65.8,15.54-65.8,48.89v2.59c0,30.44,22.69,48.24,61.26,48.24,21.39,0,39.22-8.42,49.91-22.34l16.21,16.19c5.73,5.72,15.02,5.72,20.75,0l5.83-5.83c5.37-5.37,5.37-14.07,0-19.43l-15.23-15.22ZM853.52,640.58c0,14.9-13.61,25.58-32.41,25.58-19.77,0-29.82-6.8-29.82-20.72v-2.59c0-14.25,10.37-21.37,31.12-21.37,10.69,0,20.74,1.3,31.12,4.21v14.9Z"/>
    <path class="st0" d="M720.32,527.9h-3.89c-16.21,0-28.85,8.09-36.95,22.34l-18.47-18.46c-5.73-5.72-15.01-5.72-20.74,0l-15.56,15.54,24.96,24.93v108.47c0,6.26,5.08,11.33,11.35,11.33h16.2c6.27,0,11.35-5.07,11.35-11.33v-81.92c0-22.66,10.7-34,31.76-34h4.54c11.02,0,18.15-6.15,18.15-16.19v-3.24c0-11.33-7.78-17.48-22.69-17.48Z"/>
    <path class="st0" d="M556.28,614.59l73.88-87.46c-4.34.27-11.43-.39-18.24-.39h-14.59c-8.1,0-11.99,2.59-17.18,9.71l-56.1,63.1c-3.8,4.8-5.6,9.02-6.22,13.26h-.27c0,.59.03,1.19.07,1.78-.04.6-.07,1.19-.07,1.79h.27c.61,4.23,2.42,8.44,6.22,13.25l40.52,53.75c5.19,7.13,9.08,9.71,17.18,9.71h14.59c6.8,0,10.37-2.91,10.37-8.74,0-3.89-.97-6.8-6.16-13.28l-44.27-56.49Z"/>
    <path class="st0" d="M494.42,461.85h-23.01v218.88c0,6.26,5.08,11.33,11.35,11.33h16.21c6.26,0,11.34-5.07,11.34-11.33v-203.01c0-8.76-7.11-15.87-15.88-15.87Z"/>
    <path class="st0" d="M425.68,527.12h-32.74v-29.65c0-8.74-5.51-14.25-13.94-14.25h-11.02c-8.43,0-13.94,5.51-13.94,14.25v29.65h-29.82v22.66c0,4.83,3.92,8.74,8.75,8.74h21.07v86.37c0,34.86,13.61,47.16,51.86,47.16h19.12c5.83,0,9.4-3.56,9.4-9.71v-13.6c0-5.5-3.57-8.74-8.75-8.74h-17.83c-11.02,0-14.91-3.89-14.91-15.22v-86.26h33.06c4.65,0,8.43-3.77,8.43-8.42v-14.25c0-4.83-3.92-8.74-8.75-8.74Z"/>
    <path class="st0" d="M309.01,660h-12.97c-7.13,0-9.72-2.91-9.72-11.01v-108.28c0-9.71-4.54-13.6-13.61-13.6h-25.28v124.14c0,28.82,10.7,40.8,45.38,40.8h15.56c5.84,0,9.4-3.56,9.4-9.71v-13.6c0-5.5-3.57-8.74-8.75-8.74Z"/>
    <path class="st0" d="M260.63,509.12h11.29c7.61,0,13.77-6.16,13.77-13.76v-10.46c0-7.6-6.17-13.76-13.77-13.76h-11.29c-7.61,0-13.77,6.16-13.77,13.76v10.46c0,7.6,6.17,13.76,13.77,13.76Z"/>
  </g>
  <path class="st1" d="M154.67,611.14l.02,1.35c-.64,4.43-2.52,8.83-6.49,13.84l-42.29,56.11c-5.41,7.44-9.47,10.14-17.93,10.14h-15.23c-7.1,0-10.83-3.04-10.83-9.12,0-4.06,1.02-7.1,6.43-13.86l46.21-58.97-46.21-58.97c-5.41-6.76-6.43-9.81-6.43-13.86,0-6.08,3.72-9.12,10.83-9.12h15.23c8.46,0,12.52,2.7,17.93,10.14l42.29,56.11c3.97,5.01,5.85,9.41,6.49,13.84l-.02,1.42c0,.63.27-.18.23.45.04.62-.23-.11-.23.51Z"/>
</svg>