<?xml version="1.0" encoding="UTF-8"?>
<svg id="LOGO_xA0_Image" xmlns="http://www.w3.org/2000/svg" version="1.1" viewBox="0 0 1200 1200">
  <!-- Generator: Adobe Illustrator 29.1.0, SVG Export Plug-In . SVG Version: 2.1.0 Build 142)  -->
  <defs>
    <style>
      .st0 {
        fill: #55a3d9;
        fill-rule: evenodd;
      }
    </style>
  </defs>
  <path class="st0" d="M909.67,603.44l.15,9.02c-4.29,29.63-16.89,59.08-43.43,92.65l-283.15,375.63c-36.23,49.81-63.42,67.88-120.04,67.88h-101.94c-47.56,0-72.48-20.35-72.48-61.07,0-27.16,6.8-47.54,43.04-92.8l309.38-394.75L331.81,205.24c-36.23-45.27-43.04-65.64-43.04-92.8,0-40.72,24.93-61.07,72.48-61.07h101.94c56.62,0,83.8,18.08,120.04,67.88l283.15,375.63c26.55,33.57,39.14,63.02,43.43,92.65l-.15,9.48c0,4.21,1.81-1.18,1.53,2.98.29,4.16-1.53-.76-1.53,3.44Z"/>
</svg>